<svg xmlns="http://www.w3.org/2000/svg" width="13" height="14" fill="none"><path fill="#323241" d="M10.445 13.35c-.545 0-1.31-.197-2.456-.837-1.394-.781-2.471-1.503-3.857-2.885-1.336-1.335-1.987-2.2-2.897-3.855C.207 3.903.382 2.923.578 2.505c.234-.5.578-.8 1.023-1.097A4.92 4.92 0 0 1 2.477.95c.139-.062.348-.156.613-.056.177.067.335.202.582.447.507.5 1.2 1.613 1.456 2.16.171.369.285.612.285.885 0 .32-.16.566-.356.832-.036.05-.072.097-.108.144-.212.279-.258.36-.228.503.062.29.527 1.15 1.29 1.912.762.76 1.599 1.195 1.89 1.257.15.032.232-.016.52-.236l.128-.097c.297-.221.532-.378.844-.378h.002c.271 0 .504.118.889.312.502.254 1.65.938 2.153 1.445.245.247.381.404.448.58.1.267.006.475-.056.615l-.034.076c-.117.279-.26.546-.427.798-.296.443-.597.787-1.099 1.02-.257.122-.54.184-.824.181Z"/></svg>