<svg xmlns="http://www.w3.org/2000/svg" width="15" height="15" fill="none"><path fill="#323241" fill-rule="evenodd" d="M12.816 2.18A7.438 7.438 0 0 0 7.533 0C3.417 0 .066 3.334.064 7.433a7.387 7.387 0 0 0 .998 3.717L.002 15l3.96-1.034a7.487 7.487 0 0 0 3.568.904h.003c4.116 0 7.467-3.334 7.469-7.433a7.372 7.372 0 0 0-2.186-5.257ZM7.533 13.616h-.002a6.22 6.22 0 0 1-3.16-.861l-.226-.134-2.35.613.627-2.28-.147-.234a6.143 6.143 0 0 1-.95-3.287c0-3.406 2.786-6.177 6.21-6.177a6.194 6.194 0 0 1 6.206 6.182c-.002 3.406-2.786 6.178-6.208 6.178Zm3.405-4.627c-.186-.093-1.105-.542-1.275-.604-.17-.062-.296-.093-.42.093s-.482.602-.59.728c-.11.125-.218.14-.405.046-.186-.093-.788-.289-1.5-.922a5.6 5.6 0 0 1-1.039-1.286c-.109-.186-.012-.287.082-.379.084-.083.186-.217.28-.325.093-.109.124-.187.186-.31.062-.124.031-.233-.015-.326-.047-.092-.42-1.007-.575-1.379-.152-.362-.306-.313-.42-.319A7.575 7.575 0 0 0 4.889 4a.687.687 0 0 0-.498.232c-.17.186-.653.636-.653 1.55 0 .913.67 1.797.762 1.92.093.125 1.316 2 3.188 2.805.348.15.703.28 1.064.391.447.142.854.122 1.175.074.359-.053 1.105-.45 1.26-.883.155-.434.156-.806.109-.883-.046-.077-.171-.124-.358-.217Z" clip-rule="evenodd"/></svg>